<svg width="130" height="104" xmlns="http://www.w3.org/2000/svg"><g fill="none" fill-rule="evenodd"><path d="M13 78C5.82 78 0 83.82 0 91s5.82 13 13 13 13-5.82 13-13-5.82-13-13-13m6.669 9.841c.006.142.008.286.008.43 0 4.382-3.388 9.436-9.585 9.436a9.653 9.653 0 0 1-5.166-1.49c.264.03.532.046.804.046a6.83 6.83 0 0 0 4.186-1.42 3.368 3.368 0 0 1-3.148-2.303 3.457 3.457 0 0 0 1.522-.057c-1.541-.305-2.703-1.646-2.703-3.252v-.042c.455.249.975.397 1.527.415a3.302 3.302 0 0 1-1.5-2.76c0-.609.167-1.178.456-1.668a9.618 9.618 0 0 0 6.945 3.466 3.33 3.33 0 0 1-.087-.756c0-1.832 1.508-3.317 3.369-3.317.97 0 1.845.403 2.459 1.048a6.815 6.815 0 0 0 2.14-.806 3.334 3.334 0 0 1-1.482 1.835 6.79 6.79 0 0 0 1.935-.522 6.778 6.778 0 0 1-1.68 1.717M39.002 78C31.82 78 26 83.82 26 91s5.82 13 13.002 13C46.179 104 52 98.18 52 91s-5.82-13-12.998-13zm3.493 13h-2.412v8.125h-3.25V91h-1.625v-3.25h1.612v-1.469c0-1.33.633-3.406 3.42-3.406l2.51.01v2.785h-1.823c-.296 0-.718.147-.718.78v1.3h2.582L42.495 91zM65 78c-7.18 0-13 5.82-13 13s5.82 13 13 13 13-5.82 13-13-5.82-13-13-13zm8.125 11.333v6.652c0 1.732-1.41 3.14-3.141 3.14h-9.97a3.143 3.143 0 0 1-3.139-3.14v-9.97a3.143 3.143 0 0 1 3.14-3.14h9.969a3.144 3.144 0 0 1 3.141 3.14v3.318zm-4.014 1.698a4.343 4.343 0 0 1-4.338 4.338 4.343 4.343 0 0 1-4.337-4.338 4.3 4.3 0 0 1 .319-1.627h-2.369v6.494c0 .839.682 1.52 1.52 1.52h9.733c.839 0 1.521-.681 1.521-1.52v-6.494h-2.369a4.32 4.32 0 0 1 .32 1.627zm1.999-3.5v-2.689l-.35.002-2.339.007.01 2.689 2.679-.01zm-6.282 6.087a2.797 2.797 0 0 0 2.793-2.791c0-.607-.199-1.17-.53-1.628a2.79 2.79 0 0 0-2.263-1.164 2.79 2.79 0 0 0-2.264 1.164 2.778 2.778 0 0 0-.529 1.628 2.795 2.795 0 0 0 2.793 2.791zM91 103.998c-7.18 0-13-5.82-13-12.999S83.82 78 91 78c7.178 0 12.998 5.82 12.998 13 0 7.178-5.82 12.998-12.998 12.998zm-3.71-4.572c.015.111.162.138.23.055.094-.12 1.323-1.588 1.74-3.055.119-.415.678-2.565.678-2.565.336.619 1.315 1.163 2.357 1.163 3.1 0 5.204-2.735 5.204-6.396 0-2.769-2.424-5.347-6.107-5.347-4.581 0-6.892 3.18-6.892 5.83 0 1.605.628 3.033 1.974 3.566.222.087.42.003.483-.233.045-.164.15-.577.198-.75.064-.234.04-.316-.139-.52-.389-.443-.637-1.018-.637-1.83 0-2.36 1.824-4.47 4.749-4.47 2.59 0 4.013 1.531 4.013 3.576 0 2.691-1.231 4.963-3.057 4.963-1.01 0-1.765-.808-1.524-1.798.291-1.182.853-2.458.853-3.312 0-.764-.424-1.4-1.301-1.4-1.032 0-1.86 1.032-1.86 2.414 0 .882.308 1.479.308 1.479l-1.241 5.084c-.369 1.51-.056 3.36-.03 3.546zM117 104c-7.18 0-13-5.82-13-13s5.82-13 13-13 13 5.82 13 13-5.82 13-13 13zm-1.677-10.802l-.001-4.761 4.39 2.39-4.389 2.371zm9.639-5.586s-.159-1.168-.645-1.683c-.618-.673-1.311-.678-1.627-.716-2.276-.171-5.686-.171-5.686-.171h-.007s-3.412 0-5.686.17c-.317.04-1.009.044-1.628.717-.486.515-.645 1.683-.645 1.683s-.163 1.37-.163 2.742v1.285c0 1.373.163 2.744.163 2.744s.159 1.166.645 1.68c.62.676 1.432.654 1.793.724 1.3.13 5.524.171 5.524.171s3.414-.006 5.69-.176c.316-.04 1.009-.043 1.627-.719.486-.514.645-1.68.645-1.68s.163-1.371.163-2.744v-1.285c0-1.371-.163-2.742-.163-2.742z" fill="#A83B24"/><path d="M13 52C5.82 52 0 57.82 0 65s5.82 13 13 13 13-5.82 13-13-5.82-13-13-13m6.669 9.841c.006.142.008.286.008.43 0 4.382-3.388 9.436-9.585 9.436a9.653 9.653 0 0 1-5.166-1.49c.264.03.532.046.804.046a6.83 6.83 0 0 0 4.186-1.42 3.368 3.368 0 0 1-3.148-2.303 3.457 3.457 0 0 0 1.522-.057c-1.541-.305-2.703-1.646-2.703-3.252v-.042c.455.249.975.397 1.527.415a3.302 3.302 0 0 1-1.5-2.76c0-.609.167-1.178.456-1.668a9.618 9.618 0 0 0 6.945 3.466 3.33 3.33 0 0 1-.087-.756c0-1.832 1.508-3.317 3.369-3.317.97 0 1.845.403 2.459 1.048a6.815 6.815 0 0 0 2.14-.806 3.334 3.334 0 0 1-1.482 1.835 6.79 6.79 0 0 0 1.935-.522 6.778 6.778 0 0 1-1.68 1.717M39.002 52C31.82 52 26 57.82 26 65s5.82 13 13.002 13C46.179 78 52 72.18 52 65s-5.82-13-12.998-13zm3.493 13h-2.412v8.125h-3.25V65h-1.625v-3.25h1.612v-1.469c0-1.33.633-3.406 3.42-3.406l2.51.01v2.785h-1.823c-.296 0-.718.147-.718.78v1.3h2.582L42.495 65zM65 52c-7.18 0-13 5.82-13 13s5.82 13 13 13 13-5.82 13-13-5.82-13-13-13zm8.125 11.333v6.652c0 1.732-1.41 3.14-3.141 3.14h-9.97a3.143 3.143 0 0 1-3.139-3.14v-9.97a3.143 3.143 0 0 1 3.14-3.14h9.969a3.144 3.144 0 0 1 3.141 3.14v3.318zm-4.014 1.698a4.343 4.343 0 0 1-4.338 4.338 4.343 4.343 0 0 1-4.337-4.338 4.3 4.3 0 0 1 .319-1.627h-2.369v6.494c0 .839.682 1.52 1.52 1.52h9.733c.839 0 1.521-.681 1.521-1.52v-6.494h-2.369a4.32 4.32 0 0 1 .32 1.627zm1.999-3.5v-2.689l-.35.002-2.339.007.01 2.689 2.679-.01zm-6.282 6.087a2.797 2.797 0 0 0 2.793-2.791c0-.607-.199-1.17-.53-1.628a2.79 2.79 0 0 0-2.263-1.164 2.79 2.79 0 0 0-2.264 1.164 2.778 2.778 0 0 0-.529 1.628 2.795 2.795 0 0 0 2.793 2.791zM78 65c0-7.18 5.82-13 13-13 7.178 0 12.998 5.82 12.998 13 0 7.178-5.82 12.998-12.998 12.998-7.18 0-13-5.82-13-12.999zm9.29 8.426c.015.111.162.138.23.055.094-.12 1.323-1.588 1.74-3.055.119-.415.678-2.565.678-2.565.336.619 1.315 1.163 2.357 1.163 3.1 0 5.204-2.735 5.204-6.396 0-2.769-2.424-5.347-6.107-5.347-4.581 0-6.892 3.18-6.892 5.83 0 1.605.628 3.033 1.974 3.566.222.087.42.003.483-.233.045-.164.15-.577.198-.75.064-.234.04-.316-.139-.52-.389-.443-.637-1.018-.637-1.83 0-2.36 1.824-4.47 4.749-4.47 2.59 0 4.013 1.531 4.013 3.576 0 2.691-1.231 4.963-3.057 4.963-1.01 0-1.765-.808-1.524-1.798.291-1.182.853-2.458.853-3.312 0-.764-.424-1.4-1.301-1.4-1.032 0-1.86 1.032-1.86 2.414 0 .882.308 1.479.308 1.479l-1.241 5.084c-.369 1.51-.056 3.36-.03 3.546zM104 65c0-7.18 5.82-13 13-13s13 5.82 13 13-5.82 13-13 13-13-5.82-13-13zm11.323 2.198l-.001-4.761 4.39 2.39-4.389 2.371zm9.639-5.586s-.159-1.168-.645-1.683c-.618-.673-1.311-.678-1.627-.716-2.276-.171-5.686-.171-5.686-.171h-.007s-3.412 0-5.686.17c-.317.04-1.009.044-1.628.717-.486.515-.645 1.683-.645 1.683s-.163 1.37-.163 2.742v1.285c0 1.373.163 2.744.163 2.744s.159 1.166.645 1.68c.62.676 1.432.654 1.793.724 1.3.13 5.524.171 5.524.171s3.414-.006 5.69-.176c.316-.04 1.009-.043 1.627-.719.486-.514.645-1.68.645-1.68s.163-1.371.163-2.744v-1.285c0-1.371-.163-2.742-.163-2.742z" fill="#f1e8e0"/><path d="M13 26C5.82 26 0 31.82 0 39s5.82 13 13 13 13-5.82 13-13-5.82-13-13-13m6.669 9.841c.006.142.008.286.008.43 0 4.382-3.388 9.436-9.585 9.436a9.653 9.653 0 0 1-5.166-1.49c.264.03.532.046.804.046a6.83 6.83 0 0 0 4.186-1.42 3.368 3.368 0 0 1-3.148-2.303 3.457 3.457 0 0 0 1.522-.057c-1.541-.305-2.703-1.646-2.703-3.252v-.042c.455.249.975.397 1.527.415a3.302 3.302 0 0 1-1.5-2.76c0-.609.167-1.178.456-1.668a9.618 9.618 0 0 0 6.945 3.466 3.33 3.33 0 0 1-.087-.756c0-1.832 1.508-3.317 3.369-3.317.97 0 1.845.403 2.459 1.048a6.815 6.815 0 0 0 2.14-.806 3.334 3.334 0 0 1-1.482 1.835 6.79 6.79 0 0 0 1.935-.522 6.778 6.778 0 0 1-1.68 1.717M39.002 26C31.82 26 26 31.82 26 39s5.82 13 13.002 13C46.179 52 52 46.18 52 39s-5.82-13-12.998-13zm3.493 13h-2.412v8.125h-3.25V39h-1.625v-3.25h1.612v-1.469c0-1.33.633-3.406 3.42-3.406l2.51.01v2.785h-1.823c-.296 0-.718.147-.718.78v1.3h2.582L42.495 39zM65 26c-7.18 0-13 5.82-13 13s5.82 13 13 13 13-5.82 13-13-5.82-13-13-13zm8.125 11.333v6.652c0 1.732-1.41 3.14-3.141 3.14h-9.97a3.143 3.143 0 0 1-3.139-3.14v-9.97a3.143 3.143 0 0 1 3.14-3.14h9.969a3.144 3.144 0 0 1 3.141 3.14v3.318zm-4.014 1.698a4.343 4.343 0 0 1-4.338 4.338 4.343 4.343 0 0 1-4.337-4.338 4.3 4.3 0 0 1 .319-1.627h-2.369v6.494c0 .839.682 1.52 1.52 1.52h9.733c.839 0 1.521-.681 1.521-1.52v-6.494h-2.369a4.32 4.32 0 0 1 .32 1.627zm1.999-3.5v-2.689l-.35.002-2.339.007.01 2.689 2.679-.01zm-6.282 6.087a2.797 2.797 0 0 0 2.793-2.791c0-.607-.199-1.17-.53-1.628a2.79 2.79 0 0 0-2.263-1.164 2.79 2.79 0 0 0-2.264 1.164 2.778 2.778 0 0 0-.529 1.628 2.795 2.795 0 0 0 2.793 2.791zM91 51.998c-7.18 0-13-5.82-13-12.999S83.82 26 91 26c7.178 0 12.998 5.82 12.998 13 0 7.178-5.82 12.998-12.998 12.998zm-3.71-4.572c.015.111.162.138.23.055.094-.12 1.323-1.588 1.74-3.055.119-.415.678-2.565.678-2.565.336.619 1.315 1.163 2.357 1.163 3.1 0 5.204-2.735 5.204-6.396 0-2.769-2.424-5.347-6.107-5.347-4.581 0-6.892 3.18-6.892 5.83 0 1.605.628 3.033 1.974 3.566.222.087.42.003.483-.233.045-.164.15-.577.198-.75.064-.234.04-.316-.139-.52-.389-.443-.637-1.018-.637-1.83 0-2.36 1.824-4.47 4.749-4.47 2.59 0 4.013 1.531 4.013 3.576 0 2.691-1.231 4.963-3.057 4.963-1.01 0-1.765-.808-1.524-1.798.291-1.182.853-2.458.853-3.312 0-.764-.424-1.4-1.301-1.4-1.032 0-1.86 1.032-1.86 2.414 0 .882.308 1.479.308 1.479l-1.241 5.084c-.369 1.51-.056 3.36-.03 3.546zM130 39c0 7.18-5.82 13-13 13s-13-5.82-13-13 5.82-13 13-13 13 5.82 13 13zm-14.677 2.198l-.001-4.761 4.39 2.39-4.389 2.371zm9.639-5.586s-.159-1.169-.645-1.683c-.618-.673-1.311-.678-1.627-.716-2.276-.171-5.686-.171-5.686-.171h-.007s-3.412 0-5.686.17c-.317.04-1.009.044-1.628.717-.486.514-.645 1.683-.645 1.683s-.163 1.37-.163 2.742v1.285c0 1.373.163 2.744.163 2.744s.159 1.166.645 1.68c.62.676 1.432.654 1.793.724 1.3.13 5.524.171 5.524.171s3.414-.006 5.69-.176c.316-.04 1.009-.043 1.627-.718.486-.515.645-1.681.645-1.681s.163-1.371.163-2.744v-1.285c0-1.371-.163-2.742-.163-2.742z" fill="#4F4F51"/><path d="M13 0C5.82 0 0 5.82 0 13s5.82 13 13 13 13-5.82 13-13S20.18 0 13 0m6.669 9.841c.006.142.008.286.008.43 0 4.382-3.388 9.436-9.585 9.436a9.653 9.653 0 0 1-5.166-1.49c.264.03.532.046.804.046a6.83 6.83 0 0 0 4.186-1.42 3.368 3.368 0 0 1-3.148-2.303 3.457 3.457 0 0 0 1.522-.057c-1.541-.305-2.703-1.646-2.703-3.252v-.042c.455.249.975.397 1.527.415a3.302 3.302 0 0 1-1.5-2.76c0-.609.167-1.178.456-1.668a9.618 9.618 0 0 0 6.945 3.466 3.33 3.33 0 0 1-.087-.756c0-1.832 1.508-3.317 3.369-3.317.97 0 1.845.403 2.459 1.048a6.815 6.815 0 0 0 2.14-.806 3.334 3.334 0 0 1-1.482 1.835 6.79 6.79 0 0 0 1.935-.522 6.778 6.778 0 0 1-1.68 1.717M39.002 0C31.82 0 26 5.82 26 13s5.82 13 13.002 13C46.179 26 52 20.18 52 13S46.18 0 39.002 0zm3.493 13h-2.412v8.125h-3.25V13h-1.625V9.75h1.612V8.281c0-1.33.633-3.406 3.42-3.406l2.51.01V7.67h-1.823c-.296 0-.718.147-.718.78v1.3h2.582L42.495 13zM65 0c-7.18 0-13 5.82-13 13s5.82 13 13 13 13-5.82 13-13S72.18 0 65 0zm8.125 17.985c0 1.732-1.41 3.14-3.141 3.14h-9.97a3.143 3.143 0 0 1-3.139-3.14v-9.97a3.143 3.143 0 0 1 3.14-3.14h9.969a3.144 3.144 0 0 1 3.141 3.14v9.97zm-4.014-4.954a4.343 4.343 0 0 1-4.338 4.338 4.343 4.343 0 0 1-4.337-4.338 4.3 4.3 0 0 1 .319-1.627h-2.369v6.494c0 .839.682 1.52 1.52 1.52h9.733c.839 0 1.521-.681 1.521-1.52v-6.494h-2.369a4.32 4.32 0 0 1 .32 1.627zm1.999-3.5V6.842l-.35.002-2.339.007.01 2.689 2.679-.01zm-6.282 6.087a2.797 2.797 0 0 0 2.793-2.791c0-.607-.199-1.17-.53-1.628a2.79 2.79 0 0 0-2.263-1.164 2.79 2.79 0 0 0-2.264 1.164 2.778 2.778 0 0 0-.529 1.628 2.795 2.795 0 0 0 2.793 2.791zM91 25.998c-7.18 0-13-5.82-13-12.999S83.82 0 91 0c7.178 0 12.998 5.82 12.998 13 0 7.178-5.82 12.998-12.998 12.998zm-3.48-4.517c.094-.12 1.323-1.588 1.74-3.055.119-.415.678-2.565.678-2.565.336.619 1.315 1.163 2.357 1.163 3.1 0 5.204-2.735 5.204-6.396 0-2.769-2.424-5.347-6.107-5.347-4.581 0-6.892 3.18-6.892 5.83 0 1.605.628 3.033 1.974 3.566.222.087.42.003.483-.233.045-.164.15-.577.198-.75.064-.234.04-.316-.139-.52-.389-.443-.637-1.018-.637-1.83 0-2.36 1.824-4.47 4.749-4.47 2.59 0 4.013 1.531 4.013 3.576 0 2.691-1.231 4.963-3.057 4.963-1.01 0-1.765-.808-1.524-1.798.291-1.182.853-2.458.853-3.312 0-.764-.424-1.4-1.301-1.4-1.032 0-1.86 1.032-1.86 2.414 0 .882.308 1.479.308 1.479l-1.241 5.084c-.369 1.51-.056 3.36-.03 3.546.016.111.163.138.23.055zM130 13c0 7.18-5.82 13-13 13s-13-5.82-13-13 5.82-13 13-13 13 5.82 13 13zm-14.677 2.198l-.001-4.761 4.39 2.39-4.389 2.371zm8.994-7.269c-.618-.673-1.311-.678-1.627-.716-2.276-.171-5.686-.171-5.686-.171-.007 0-3.42 0-5.693.17-.317.04-1.009.044-1.628.717-.486.514-.645 1.683-.645 1.683s-.163 1.37-.163 2.742v1.285c0 1.373.163 2.744.163 2.744s.159 1.166.645 1.68c.62.676 1.432.654 1.793.724 1.3.13 5.524.171 5.524.171s3.414-.006 5.69-.176c.316-.04 1.009-.043 1.627-.718.486-.515.645-1.681.645-1.681s.163-1.371.163-2.744v-1.285c0-1.371-.163-2.742-.163-2.742s-.159-1.168-.645-1.683z" fill="#7995b0"/></g></svg>