<?xml version="1.0" encoding="UTF-8" standalone="no"?>
<svg width="130px" height="104px" viewBox="0 0 130 104" version="1.1" xmlns="http://www.w3.org/2000/svg" xmlns:xlink="http://www.w3.org/1999/xlink">
    <!-- Generator: Sketch 3.6.1 (26313) - http://www.bohemiancoding.com/sketch -->
    <title>social</title>
    <desc>Created with Sketch.</desc>
    <defs></defs>
    <g id="Page-1" stroke="none" stroke-width="1" fill="none" fill-rule="evenodd">
        <g id="social">
            <g id="red" transform="translate(0.000000, 78.000000)" fill="#A83B24">
                <path d="M13.0009027,0 C5.8207069,0 0,5.8197569 0,13 C0,20.1793403 5.8207069,26 13.0009027,26 C20.1797445,26 26,20.1793403 26,13 C26,5.8197569 20.1797445,0 13.0009027,0 M19.6687719,9.8409991 C19.6751579,9.9828687 19.6769825,10.1265628 19.6769825,10.270257 C19.6769825,14.6531579 16.2892281,19.7066316 10.0916491,19.7066316 C8.19,19.7066316 6.41835088,19.1578566 4.92631579,18.2167737 C5.19042105,18.2473373 5.4577193,18.2633033 5.73049123,18.2633033 C7.31010526,18.2633033 8.762,17.7327752 9.91557895,16.8436959 C8.44087719,16.8167818 7.19789474,15.857452 6.76821053,14.5400272 C6.97438596,14.5783456 7.18512281,14.5997857 7.40178947,14.5997857 C7.70968421,14.5997857 8.00708772,14.5591864 8.29035088,14.4834619 C6.74859649,14.1782828 5.58726316,12.837137 5.58726316,11.2309553 L5.58726316,11.1889875 C6.04157895,11.4376012 6.56157895,11.5863133 7.11350877,11.6036479 C6.20989474,11.0092557 5.6137193,9.9942729 5.6137193,8.8438071 C5.6137193,8.2352736 5.78066667,7.6655147 6.07031579,7.1760422 C7.73249123,9.1827429 10.214807,10.5029048 13.0145965,10.6415811 C12.9580351,10.3984414 12.9279298,10.1457221 12.9279298,9.885704 C12.9279298,8.0537171 14.436386,6.5688772 16.2965263,6.5688772 C17.2662807,6.5688772 18.1420702,6.9721333 18.7555789,7.6167043 C19.5232632,7.4675361 20.2448772,7.191552 20.8957895,6.8111045 C20.6435439,7.5861408 20.1103158,8.2357298 19.4142456,8.6458284 C20.0961754,8.5659983 20.7452632,8.3880912 21.349193,8.1239676 C20.8980702,8.7895226 20.3260702,9.373879 19.6687719,9.8409991" id="Fill-9"></path>
                <path d="M39.0015798,0 C31.8208079,0 26,5.8197569 26,13 C26,20.1793403 31.8208079,26 39.0015798,26 C46.1791921,26 52,20.1793403 52,13 C52,5.8197569 46.1791921,0 39.0015798,0 L39.0015798,0 L39.0015798,0 L39.0015798,0 L39.0015798,0 L39.0015798,0 Z M42.4951478,13 L40.0830512,13 L40.0830512,21.125 L36.8332205,21.125 L36.8332205,13 L35.2083051,13 L35.2083051,9.75 L36.8201309,9.75 L36.8201309,8.2811806 C36.8201309,6.9518403 37.4533965,4.875 40.239675,4.875 L42.7501693,4.8849306 L42.7501693,7.6695486 L40.9271045,7.6695486 C40.6305574,7.6695486 40.2089822,7.8171528 40.2089822,8.4504514 L40.2089822,9.75 L42.7912435,9.75 L42.4951478,13 L42.4951478,13 L42.4951478,13 L42.4951478,13 L42.4951478,13 Z" id="Fill-10"></path>
                <path d="M65.0004514,0 C57.8206597,0 52,5.8197569 52,13 C52,20.1793403 57.8206597,26 65.0004514,26 C72.1793403,26 78,20.1793403 78,13 C78,5.8197569 72.1793403,0 65.0004514,0 L65.0004514,0 L65.0004514,0 L65.0004514,0 L65.0004514,0 L65.0004514,0 Z M73.125,11.3325694 L73.125,17.9851389 C73.125,19.7166667 71.7157639,21.125 69.9837847,21.125 L60.0148611,21.125 C58.2828819,21.125 56.875,19.7166667 56.875,17.9851389 L56.875,11.3325694 L56.875,8.0148611 C56.875,6.2828819 58.2828819,4.875 60.0148611,4.875 L69.9837847,4.875 C71.7157639,4.875 73.125,6.2828819 73.125,8.0148611 L73.125,11.3325694 L73.125,11.3325694 L73.125,11.3325694 L73.125,11.3325694 L73.125,11.3325694 Z M69.1111853,13.0313732 C69.1111853,15.4233732 67.1651514,17.3694071 64.7731514,17.3694071 C62.3811514,17.3694071 60.4355581,15.4233732 60.4355581,13.0313732 C60.4355581,12.4558478 60.5501344,11.906763 60.754609,11.4035088 L58.3859649,11.4035088 L58.3859649,17.8982206 C58.3859649,18.7368308 59.0676937,19.4185596 59.9063039,19.4185596 L69.6391175,19.4185596 C70.4777276,19.4185596 71.1603378,18.7368308 71.1603378,17.8982206 L71.1603378,11.4035088 L68.791253,11.4035088 C68.9952869,11.906763 69.1111853,12.4558478 69.1111853,13.0313732 L69.1111853,13.0313732 L69.1111853,13.0313732 L69.1111853,13.0313732 L69.1111853,13.0313732 Z M71.1096289,9.5306815 L71.1096289,7.1924443 L71.1096289,6.8421053 L70.7592899,6.8443087 L68.4210526,6.8513595 L68.4303069,9.5399358 L71.1096289,9.5306815 L71.1096289,9.5306815 L71.1096289,9.5306815 L71.1096289,9.5306815 L71.1096289,9.5306815 Z M64.827664,15.6184775 C66.3665114,15.6184775 67.6206809,14.3656301 67.6206809,12.8267826 C67.6206809,12.2195284 67.4223759,11.657664 67.0918674,11.1989182 C66.5837657,10.4955962 65.7592572,10.0350877 64.827664,10.0350877 C63.8960708,10.0350877 63.072003,10.4955962 62.5639013,11.1989182 C62.2333928,11.657664 62.0350877,12.2195284 62.0350877,12.8267826 C62.0350877,14.3656301 63.2874945,15.6184775 64.827664,15.6184775 L64.827664,15.6184775 L64.827664,15.6184775 L64.827664,15.6184775 L64.827664,15.6184775 Z" id="Combined-Shape"></path>
                <path d="M90.9997258,25.9983682 C83.8203847,25.9983682 78,20.1779836 78,12.9991841 C78,5.81930143 83.8203847,0 90.9997258,0 C98.1779836,0 103.998368,5.81930143 103.998368,12.9991841 C103.998368,20.1779836 98.1779836,25.9983682 90.9997258,25.9983682 L90.9997258,25.9983682 L90.9997258,25.9983682 Z M87.289542,21.4264469 C87.3047077,21.5374816 87.4520318,21.5640216 87.5191942,21.4806101 C87.6139799,21.3609093 88.8429445,19.8925431 89.2605432,18.4263435 C89.3786192,18.0109112 89.9381257,15.8611712 89.9381257,15.8611712 C90.273938,16.4797157 91.2532098,17.0235149 92.2953111,17.0235149 C95.3956165,17.0235149 97.4987762,14.2893531 97.4987762,10.6279163 C97.4987762,7.85909007 95.07497,5.28091855 91.3924094,5.28091855 C86.8107387,5.28091855 84.4995921,8.46030233 84.4995921,11.1110526 C84.4995921,12.7159102 85.127886,14.1441956 86.4738431,14.6771621 C86.6959125,14.7638234 86.8936085,14.6804119 86.9569795,14.4437185 C87.001935,14.2796038 87.1070117,13.8668797 87.1552171,13.6935572 C87.2185881,13.4595719 87.1942146,13.378327 87.0160174,13.1741315 C86.6271252,12.7305343 86.3790574,12.1564037 86.3790574,11.3439547 C86.3790574,8.98460276 88.2032763,6.8733186 91.1275511,6.8733186 C93.7176385,6.8733186 95.1405075,8.4050558 95.1405075,10.4502608 C95.1405075,13.1410919 93.9099181,15.4126993 92.0840744,15.4126993 C91.0739294,15.4126993 90.3188935,14.605125 90.5604617,13.6150205 C90.8513184,12.4326363 91.4129915,11.1565498 91.4129915,10.3029367 C91.4129915,9.53923461 90.9888931,8.90227459 90.1119898,8.90227459 C89.0801796,8.90227459 88.2514816,9.93462647 88.2514816,11.3174147 C88.2514816,12.198651 88.5596706,12.7955302 88.5596706,12.7955302 C88.5596706,12.7955302 87.5034869,17.122092 87.3187901,17.8803778 C86.9504799,19.389908 87.2630019,21.2401252 87.289542,21.4264469 L87.289542,21.4264469 L87.289542,21.4264469 Z" id="Combined-Shape"></path>
                <path d="M117.000542,26 C109.82075,26 104,20.17925 104,13 C104,5.81966667 109.82075,0 117.000542,0 C124.17925,0 130,5.81966667 130,13 C130,20.17925 124.17925,26 117.000542,26 L117.000542,26 Z M115.323,15.1980833 L115.321917,10.4368333 L119.712667,12.826125 L115.323,15.1980833 L115.323,15.1980833 Z M124.961958,9.611875 C124.961958,9.611875 124.80325,8.4435 124.316833,7.92945833 C123.698792,7.255625 123.006,7.25129167 122.689667,7.21283333 C120.414125,7.04166667 117.004333,7.04166667 117.004333,7.04166667 L116.99675,7.04166667 C116.99675,7.04166667 113.584792,7.04166667 111.311417,7.21283333 C110.994,7.25129167 110.302292,7.255625 109.683167,7.92945833 C109.19675,8.4435 109.038042,9.611875 109.038042,9.611875 C109.038042,9.611875 108.875,10.9828333 108.875,12.3543333 L108.875,13.6391667 C108.875,15.01175 109.038042,16.3827083 109.038042,16.3827083 C109.038042,16.3827083 109.19675,17.5494583 109.683167,18.0635 C110.302292,18.7389583 111.114792,18.71675 111.475542,18.7871667 C112.775542,18.9177083 117,18.9583333 117,18.9583333 C117,18.9583333 120.414125,18.9518333 122.689667,18.78175 C123.006,18.7422083 123.698792,18.7389583 124.316833,18.0635 C124.80325,17.5494583 124.961958,16.3827083 124.961958,16.3827083 C124.961958,16.3827083 125.125,15.01175 125.125,13.6391667 L125.125,12.3543333 C125.125,10.9828333 124.961958,9.611875 124.961958,9.611875 L124.961958,9.611875 Z" id="Combined-Shape"></path>
            </g>
            <g id="lt-cream" transform="translate(0.000000, 52.000000)" fill="#f1e8e0">
                <path d="M13.0009027,0 C5.8207069,0 0,5.81975694 0,13 C0,20.1793403 5.8207069,26 13.0009027,26 C20.1797445,26 26,20.1793403 26,13 C26,5.81975694 20.1797445,0 13.0009027,0 M19.6687719,9.84099914 C19.6751579,9.98286865 19.6769825,10.1265628 19.6769825,10.270257 C19.6769825,14.6531579 16.2892281,19.7066316 10.0916491,19.7066316 C8.19,19.7066316 6.41835088,19.1578566 4.92631579,18.2167737 C5.19042105,18.2473373 5.4577193,18.2633033 5.73049123,18.2633033 C7.31010526,18.2633033 8.762,17.7327752 9.91557895,16.8436959 C8.44087719,16.8167818 7.19789474,15.857452 6.76821053,14.5400272 C6.97438596,14.5783456 7.18512281,14.5997857 7.40178947,14.5997857 C7.70968421,14.5997857 8.00708772,14.5591864 8.29035088,14.4834619 C6.74859649,14.1782828 5.58726316,12.837137 5.58726316,11.2309553 L5.58726316,11.1889875 C6.04157895,11.4376012 6.56157895,11.5863133 7.11350877,11.6036479 C6.20989474,11.0092557 5.6137193,9.99427295 5.6137193,8.84380709 C5.6137193,8.23527361 5.78066667,7.66551475 6.07031579,7.17604216 C7.73249123,9.18274291 10.214807,10.5029048 13.0145965,10.6415811 C12.9580351,10.3984414 12.9279298,10.1457221 12.9279298,9.885704 C12.9279298,8.05371714 14.436386,6.56887719 16.2965263,6.56887719 C17.2662807,6.56887719 18.1420702,6.97213327 18.7555789,7.61670434 C19.5232632,7.46753609 20.2448772,7.19155201 20.8957895,6.81110454 C20.6435439,7.58614081 20.1103158,8.23572978 19.4142456,8.64582843 C20.0961754,8.56599833 20.7452632,8.38809124 21.349193,8.12396763 C20.8980702,8.78952262 20.3260702,9.37387899 19.6687719,9.84099914" id="Fill-9"></path>
                <path d="M39.0015798,0 C31.8208079,0 26,5.81975694 26,13 C26,20.1793403 31.8208079,26 39.0015798,26 C46.1791921,26 52,20.1793403 52,13 C52,5.81975694 46.1791921,0 39.0015798,0 L39.0015798,0 L39.0015798,0 L39.0015798,0 L39.0015798,0 L39.0015798,0 Z M42.4951478,13 L40.0830512,13 L40.0830512,21.125 L36.8332205,21.125 L36.8332205,13 L35.2083051,13 L35.2083051,9.75 L36.8201309,9.75 L36.8201309,8.28118056 C36.8201309,6.95184028 37.4533965,4.875 40.239675,4.875 L42.7501693,4.88493056 L42.7501693,7.66954861 L40.9271045,7.66954861 C40.6305574,7.66954861 40.2089822,7.81715278 40.2089822,8.45045139 L40.2089822,9.75 L42.7912435,9.75 L42.4951478,13 L42.4951478,13 L42.4951478,13 L42.4951478,13 L42.4951478,13 Z" id="Fill-10"></path>
                <path d="M65.0004514,0 C57.8206597,0 52,5.81975694 52,13 C52,20.1793403 57.8206597,26 65.0004514,26 C72.1793403,26 78,20.1793403 78,13 C78,5.81975694 72.1793403,0 65.0004514,0 L65.0004514,0 L65.0004514,0 L65.0004514,0 L65.0004514,0 L65.0004514,0 Z M73.125,11.3325694 L73.125,17.9851389 C73.125,19.7166667 71.7157639,21.125 69.9837847,21.125 L60.0148611,21.125 C58.2828819,21.125 56.875,19.7166667 56.875,17.9851389 L56.875,11.3325694 L56.875,8.01486111 C56.875,6.28288194 58.2828819,4.875 60.0148611,4.875 L69.9837847,4.875 C71.7157639,4.875 73.125,6.28288194 73.125,8.01486111 L73.125,11.3325694 L73.125,11.3325694 L73.125,11.3325694 L73.125,11.3325694 L73.125,11.3325694 Z M69.1111853,13.0313732 C69.1111853,15.4233732 67.1651514,17.3694071 64.7731514,17.3694071 C62.3811514,17.3694071 60.4355581,15.4233732 60.4355581,13.0313732 C60.4355581,12.4558478 60.5501344,11.906763 60.754609,11.4035088 L58.3859649,11.4035088 L58.3859649,17.8982206 C58.3859649,18.7368308 59.0676937,19.4185596 59.9063039,19.4185596 L69.6391175,19.4185596 C70.4777276,19.4185596 71.1603378,18.7368308 71.1603378,17.8982206 L71.1603378,11.4035088 L68.791253,11.4035088 C68.9952869,11.906763 69.1111853,12.4558478 69.1111853,13.0313732 L69.1111853,13.0313732 L69.1111853,13.0313732 L69.1111853,13.0313732 L69.1111853,13.0313732 Z M71.1096289,9.53068153 L71.1096289,7.19244425 L71.1096289,6.84210526 L70.7592899,6.84430865 L68.4210526,6.8513595 L68.4303069,9.53993577 L71.1096289,9.53068153 L71.1096289,9.53068153 L71.1096289,9.53068153 L71.1096289,9.53068153 L71.1096289,9.53068153 Z M64.827664,15.6184775 C66.3665114,15.6184775 67.6206809,14.3656301 67.6206809,12.8267826 C67.6206809,12.2195284 67.4223759,11.657664 67.0918674,11.1989182 C66.5837657,10.4955962 65.7592572,10.0350877 64.827664,10.0350877 C63.8960708,10.0350877 63.072003,10.4955962 62.5639013,11.1989182 C62.2333928,11.657664 62.0350877,12.2195284 62.0350877,12.8267826 C62.0350877,14.3656301 63.2874945,15.6184775 64.827664,15.6184775 L64.827664,15.6184775 L64.827664,15.6184775 L64.827664,15.6184775 L64.827664,15.6184775 Z" id="Combined-Shape"></path>
                <path d="M78,12.9991841 C78,5.81930143 83.8203847,0 90.9997258,0 C98.1779836,0 103.998368,5.81930143 103.998368,12.9991841 C103.998368,20.1779836 98.1779836,25.9983682 90.9997258,25.9983682 C83.8203847,25.9983682 78,20.1779836 78,12.9991841 L78,12.9991841 L78,12.9991841 Z M87.289542,21.4264469 C87.3047077,21.5374816 87.4520318,21.5640216 87.5191942,21.4806101 C87.6139799,21.3609093 88.8429445,19.8925431 89.2605432,18.4263435 C89.3786192,18.0109112 89.9381257,15.8611712 89.9381257,15.8611712 C90.273938,16.4797157 91.2532098,17.0235149 92.2953111,17.0235149 C95.3956165,17.0235149 97.4987762,14.2893531 97.4987762,10.6279163 C97.4987762,7.85909007 95.07497,5.28091855 91.3924094,5.28091855 C86.8107387,5.28091855 84.4995921,8.46030233 84.4995921,11.1110526 C84.4995921,12.7159102 85.127886,14.1441956 86.4738431,14.6771621 C86.6959125,14.7638234 86.8936085,14.6804119 86.9569795,14.4437185 C87.001935,14.2796038 87.1070117,13.8668797 87.1552171,13.6935572 C87.2185881,13.4595719 87.1942146,13.378327 87.0160174,13.1741315 C86.6271252,12.7305343 86.3790574,12.1564037 86.3790574,11.3439547 C86.3790574,8.98460276 88.2032763,6.8733186 91.1275511,6.8733186 C93.7176385,6.8733186 95.1405075,8.4050558 95.1405075,10.4502608 C95.1405075,13.1410919 93.9099181,15.4126993 92.0840744,15.4126993 C91.0739294,15.4126993 90.3188935,14.605125 90.5604617,13.6150205 C90.8513184,12.4326363 91.4129915,11.1565498 91.4129915,10.3029367 C91.4129915,9.53923461 90.9888931,8.90227459 90.1119898,8.90227459 C89.0801796,8.90227459 88.2514816,9.93462647 88.2514816,11.3174147 C88.2514816,12.198651 88.5596706,12.7955302 88.5596706,12.7955302 C88.5596706,12.7955302 87.5034869,17.122092 87.3187901,17.8803778 C86.9504799,19.389908 87.2630019,21.2401252 87.289542,21.4264469 L87.289542,21.4264469 L87.289542,21.4264469 Z" id="Combined-Shape"></path>
                <path d="M104,13 C104,5.81966667 109.82075,0 117.000542,0 C124.17925,0 130,5.81966667 130,13 C130,20.17925 124.17925,26 117.000542,26 C109.82075,26 104,20.17925 104,13 L104,13 L104,13 Z M115.323,15.1980833 L115.321917,10.4368333 L119.712667,12.826125 L115.323,15.1980833 L115.323,15.1980833 L115.323,15.1980833 Z M124.961958,9.611875 C124.961958,9.611875 124.80325,8.4435 124.316833,7.92945833 C123.698792,7.255625 123.006,7.25129167 122.689667,7.21283333 C120.414125,7.04166667 117.004333,7.04166667 117.004333,7.04166667 L116.99675,7.04166667 C116.99675,7.04166667 113.584792,7.04166667 111.311417,7.21283333 C110.994,7.25129167 110.302292,7.255625 109.683167,7.92945833 C109.19675,8.4435 109.038042,9.611875 109.038042,9.611875 C109.038042,9.611875 108.875,10.9828333 108.875,12.3543333 L108.875,13.6391667 C108.875,15.01175 109.038042,16.3827083 109.038042,16.3827083 C109.038042,16.3827083 109.19675,17.5494583 109.683167,18.0635 C110.302292,18.7389583 111.114792,18.71675 111.475542,18.7871667 C112.775542,18.9177083 117,18.9583333 117,18.9583333 C117,18.9583333 120.414125,18.9518333 122.689667,18.78175 C123.006,18.7422083 123.698792,18.7389583 124.316833,18.0635 C124.80325,17.5494583 124.961958,16.3827083 124.961958,16.3827083 C124.961958,16.3827083 125.125,15.01175 125.125,13.6391667 L125.125,12.3543333 C125.125,10.9828333 124.961958,9.611875 124.961958,9.611875 L124.961958,9.611875 L124.961958,9.611875 Z" id="Combined-Shape"></path>
            </g>
            <g id="grey" transform="translate(0.000000, 26.000000)" fill="#4F4F51">
                <path d="M13.0009027,0 C5.8207069,0 0,5.81975694 0,13 C0,20.1793403 5.8207069,26 13.0009027,26 C20.1797445,26 26,20.1793403 26,13 C26,5.81975694 20.1797445,0 13.0009027,0 M19.6687719,9.84099914 C19.6751579,9.98286865 19.6769825,10.1265628 19.6769825,10.270257 C19.6769825,14.6531579 16.2892281,19.7066316 10.0916491,19.7066316 C8.19,19.7066316 6.41835088,19.1578566 4.92631579,18.2167737 C5.19042105,18.2473373 5.4577193,18.2633033 5.73049123,18.2633033 C7.31010526,18.2633033 8.762,17.7327752 9.91557895,16.8436959 C8.44087719,16.8167818 7.19789474,15.857452 6.76821053,14.5400272 C6.97438596,14.5783456 7.18512281,14.5997857 7.40178947,14.5997857 C7.70968421,14.5997857 8.00708772,14.5591864 8.29035088,14.4834619 C6.74859649,14.1782828 5.58726316,12.837137 5.58726316,11.2309553 L5.58726316,11.1889875 C6.04157895,11.4376012 6.56157895,11.5863133 7.11350877,11.6036479 C6.20989474,11.0092557 5.6137193,9.99427295 5.6137193,8.84380709 C5.6137193,8.23527361 5.78066667,7.66551475 6.07031579,7.17604216 C7.73249123,9.18274291 10.214807,10.5029048 13.0145965,10.6415811 C12.9580351,10.3984414 12.9279298,10.1457221 12.9279298,9.885704 C12.9279298,8.05371714 14.436386,6.56887719 16.2965263,6.56887719 C17.2662807,6.56887719 18.1420702,6.97213327 18.7555789,7.61670434 C19.5232632,7.46753609 20.2448772,7.19155201 20.8957895,6.81110454 C20.6435439,7.58614081 20.1103158,8.23572978 19.4142456,8.64582843 C20.0961754,8.56599833 20.7452632,8.38809124 21.349193,8.12396763 C20.8980702,8.78952262 20.3260702,9.37387899 19.6687719,9.84099914" id="Fill-9"></path>
                <path d="M39.0015798,0 C31.8208079,0 26,5.81975694 26,13 C26,20.1793403 31.8208079,26 39.0015798,26 C46.1791921,26 52,20.1793403 52,13 C52,5.81975694 46.1791921,0 39.0015798,0 L39.0015798,0 L39.0015798,0 L39.0015798,0 L39.0015798,0 L39.0015798,0 Z M42.4951478,13 L40.0830512,13 L40.0830512,21.125 L36.8332205,21.125 L36.8332205,13 L35.2083051,13 L35.2083051,9.75 L36.8201309,9.75 L36.8201309,8.28118056 C36.8201309,6.95184028 37.4533965,4.875 40.239675,4.875 L42.7501693,4.88493056 L42.7501693,7.66954861 L40.9271045,7.66954861 C40.6305574,7.66954861 40.2089822,7.81715278 40.2089822,8.45045139 L40.2089822,9.75 L42.7912435,9.75 L42.4951478,13 L42.4951478,13 L42.4951478,13 L42.4951478,13 L42.4951478,13 Z" id="Fill-10"></path>
                <path d="M65.0004514,0 C57.8206597,0 52,5.81975694 52,13 C52,20.1793403 57.8206597,26 65.0004514,26 C72.1793403,26 78,20.1793403 78,13 C78,5.81975694 72.1793403,0 65.0004514,0 L65.0004514,0 L65.0004514,0 L65.0004514,0 L65.0004514,0 L65.0004514,0 Z M73.125,11.3325694 L73.125,17.9851389 C73.125,19.7166667 71.7157639,21.125 69.9837847,21.125 L60.0148611,21.125 C58.2828819,21.125 56.875,19.7166667 56.875,17.9851389 L56.875,11.3325694 L56.875,8.01486111 C56.875,6.28288194 58.2828819,4.875 60.0148611,4.875 L69.9837847,4.875 C71.7157639,4.875 73.125,6.28288194 73.125,8.01486111 L73.125,11.3325694 L73.125,11.3325694 L73.125,11.3325694 L73.125,11.3325694 L73.125,11.3325694 Z M69.1111853,13.0313732 C69.1111853,15.4233732 67.1651514,17.3694071 64.7731514,17.3694071 C62.3811514,17.3694071 60.4355581,15.4233732 60.4355581,13.0313732 C60.4355581,12.4558478 60.5501344,11.906763 60.754609,11.4035088 L58.3859649,11.4035088 L58.3859649,17.8982206 C58.3859649,18.7368308 59.0676937,19.4185596 59.9063039,19.4185596 L69.6391175,19.4185596 C70.4777276,19.4185596 71.1603378,18.7368308 71.1603378,17.8982206 L71.1603378,11.4035088 L68.791253,11.4035088 C68.9952869,11.906763 69.1111853,12.4558478 69.1111853,13.0313732 L69.1111853,13.0313732 L69.1111853,13.0313732 L69.1111853,13.0313732 L69.1111853,13.0313732 Z M71.1096289,9.53068153 L71.1096289,7.19244425 L71.1096289,6.84210526 L70.7592899,6.84430865 L68.4210526,6.8513595 L68.4303069,9.53993577 L71.1096289,9.53068153 L71.1096289,9.53068153 L71.1096289,9.53068153 L71.1096289,9.53068153 L71.1096289,9.53068153 Z M64.827664,15.6184775 C66.3665114,15.6184775 67.6206809,14.3656301 67.6206809,12.8267826 C67.6206809,12.2195284 67.4223759,11.657664 67.0918674,11.1989182 C66.5837657,10.4955962 65.7592572,10.0350877 64.827664,10.0350877 C63.8960708,10.0350877 63.072003,10.4955962 62.5639013,11.1989182 C62.2333928,11.657664 62.0350877,12.2195284 62.0350877,12.8267826 C62.0350877,14.3656301 63.2874945,15.6184775 64.827664,15.6184775 L64.827664,15.6184775 L64.827664,15.6184775 L64.827664,15.6184775 L64.827664,15.6184775 Z" id="Combined-Shape"></path>
                <path d="M90.9997258,25.9983682 C83.8203847,25.9983682 78,20.1779836 78,12.9991841 C78,5.81930143 83.8203847,0 90.9997258,0 C98.1779836,0 103.998368,5.81930143 103.998368,12.9991841 C103.998368,20.1779836 98.1779836,25.9983682 90.9997258,25.9983682 L90.9997258,25.9983682 L90.9997258,25.9983682 Z M87.289542,21.4264469 C87.3047077,21.5374816 87.4520318,21.5640216 87.5191942,21.4806101 C87.6139799,21.3609093 88.8429445,19.8925431 89.2605432,18.4263435 C89.3786192,18.0109112 89.9381257,15.8611712 89.9381257,15.8611712 C90.273938,16.4797157 91.2532098,17.0235149 92.2953111,17.0235149 C95.3956165,17.0235149 97.4987762,14.2893531 97.4987762,10.6279163 C97.4987762,7.85909007 95.07497,5.28091855 91.3924094,5.28091855 C86.8107387,5.28091855 84.4995921,8.46030233 84.4995921,11.1110526 C84.4995921,12.7159102 85.127886,14.1441956 86.4738431,14.6771621 C86.6959125,14.7638234 86.8936085,14.6804119 86.9569795,14.4437185 C87.001935,14.2796038 87.1070117,13.8668797 87.1552171,13.6935572 C87.2185881,13.4595719 87.1942146,13.378327 87.0160174,13.1741315 C86.6271252,12.7305343 86.3790574,12.1564037 86.3790574,11.3439547 C86.3790574,8.98460276 88.2032763,6.8733186 91.1275511,6.8733186 C93.7176385,6.8733186 95.1405075,8.4050558 95.1405075,10.4502608 C95.1405075,13.1410919 93.9099181,15.4126993 92.0840744,15.4126993 C91.0739294,15.4126993 90.3188935,14.605125 90.5604617,13.6150205 C90.8513184,12.4326363 91.4129915,11.1565498 91.4129915,10.3029367 C91.4129915,9.53923461 90.9888931,8.90227459 90.1119898,8.90227459 C89.0801796,8.90227459 88.2514816,9.93462647 88.2514816,11.3174147 C88.2514816,12.198651 88.5596706,12.7955302 88.5596706,12.7955302 C88.5596706,12.7955302 87.5034869,17.122092 87.3187901,17.8803778 C86.9504799,19.389908 87.2630019,21.2401252 87.289542,21.4264469 L87.289542,21.4264469 L87.289542,21.4264469 Z" id="Combined-Shape"></path>
                <path d="M130,13 C130,20.17925 124.17925,26 117.000542,26 C109.82075,26 104,20.17925 104,13 C104,5.81966667 109.82075,0 117.000542,0 C124.17925,0 130,5.81966667 130,13 L130,13 L130,13 Z M115.323,15.1980833 L115.321917,10.4368333 L119.712667,12.826125 L115.323,15.1980833 L115.323,15.1980833 L115.323,15.1980833 Z M124.961958,9.611875 C124.961958,9.611875 124.80325,8.4435 124.316833,7.92945833 C123.698792,7.255625 123.006,7.25129167 122.689667,7.21283333 C120.414125,7.04166667 117.004333,7.04166667 117.004333,7.04166667 L116.99675,7.04166667 C116.99675,7.04166667 113.584792,7.04166667 111.311417,7.21283333 C110.994,7.25129167 110.302292,7.255625 109.683167,7.92945833 C109.19675,8.4435 109.038042,9.611875 109.038042,9.611875 C109.038042,9.611875 108.875,10.9828333 108.875,12.3543333 L108.875,13.6391667 C108.875,15.01175 109.038042,16.3827083 109.038042,16.3827083 C109.038042,16.3827083 109.19675,17.5494583 109.683167,18.0635 C110.302292,18.7389583 111.114792,18.71675 111.475542,18.7871667 C112.775542,18.9177083 117,18.9583333 117,18.9583333 C117,18.9583333 120.414125,18.9518333 122.689667,18.78175 C123.006,18.7422083 123.698792,18.7389583 124.316833,18.0635 C124.80325,17.5494583 124.961958,16.3827083 124.961958,16.3827083 C124.961958,16.3827083 125.125,15.01175 125.125,13.6391667 L125.125,12.3543333 C125.125,10.9828333 124.961958,9.611875 124.961958,9.611875 L124.961958,9.611875 L124.961958,9.611875 Z" id="Combined-Shape"></path>
            </g>
            <g id="blue" fill="#7995b0">
                <path d="M13.0009027,0 C5.8207069,0 0,5.81975694 0,13 C0,20.1793403 5.8207069,26 13.0009027,26 C20.1797445,26 26,20.1793403 26,13 C26,5.81975694 20.1797445,0 13.0009027,0 M19.6687719,9.84099914 C19.6751579,9.98286865 19.6769825,10.1265628 19.6769825,10.270257 C19.6769825,14.6531579 16.2892281,19.7066316 10.0916491,19.7066316 C8.19,19.7066316 6.41835088,19.1578566 4.92631579,18.2167737 C5.19042105,18.2473373 5.4577193,18.2633033 5.73049123,18.2633033 C7.31010526,18.2633033 8.762,17.7327752 9.91557895,16.8436959 C8.44087719,16.8167818 7.19789474,15.857452 6.76821053,14.5400272 C6.97438596,14.5783456 7.18512281,14.5997857 7.40178947,14.5997857 C7.70968421,14.5997857 8.00708772,14.5591864 8.29035088,14.4834619 C6.74859649,14.1782828 5.58726316,12.837137 5.58726316,11.2309553 L5.58726316,11.1889875 C6.04157895,11.4376012 6.56157895,11.5863133 7.11350877,11.6036479 C6.20989474,11.0092557 5.6137193,9.99427295 5.6137193,8.84380709 C5.6137193,8.23527361 5.78066667,7.66551475 6.07031579,7.17604216 C7.73249123,9.18274291 10.214807,10.5029048 13.0145965,10.6415811 C12.9580351,10.3984414 12.9279298,10.1457221 12.9279298,9.885704 C12.9279298,8.05371714 14.436386,6.56887719 16.2965263,6.56887719 C17.2662807,6.56887719 18.1420702,6.97213327 18.7555789,7.61670434 C19.5232632,7.46753609 20.2448772,7.19155201 20.8957895,6.81110454 C20.6435439,7.58614081 20.1103158,8.23572978 19.4142456,8.64582843 C20.0961754,8.56599833 20.7452632,8.38809124 21.349193,8.12396763 C20.8980702,8.78952262 20.3260702,9.37387899 19.6687719,9.84099914" id="Fill-9"></path>
                <path d="M39.0015798,0 C31.8208079,0 26,5.81975694 26,13 C26,20.1793403 31.8208079,26 39.0015798,26 C46.1791921,26 52,20.1793403 52,13 C52,5.81975694 46.1791921,0 39.0015798,0 L39.0015798,0 L39.0015798,0 L39.0015798,0 L39.0015798,0 L39.0015798,0 Z M42.4951478,13 L40.0830512,13 L40.0830512,21.125 L36.8332205,21.125 L36.8332205,13 L35.2083051,13 L35.2083051,9.75 L36.8201309,9.75 L36.8201309,8.28118056 C36.8201309,6.95184028 37.4533965,4.875 40.239675,4.875 L42.7501693,4.88493056 L42.7501693,7.66954861 L40.9271045,7.66954861 C40.6305574,7.66954861 40.2089822,7.81715278 40.2089822,8.45045139 L40.2089822,9.75 L42.7912435,9.75 L42.4951478,13 L42.4951478,13 L42.4951478,13 L42.4951478,13 L42.4951478,13 Z" id="Fill-10"></path>
                <path d="M65.0004514,0 C57.8206597,0 52,5.81975694 52,13 C52,20.1793403 57.8206597,26 65.0004514,26 C72.1793403,26 78,20.1793403 78,13 C78,5.81975694 72.1793403,0 65.0004514,0 L65.0004514,0 L65.0004514,0 L65.0004514,0 L65.0004514,0 L65.0004514,0 Z M73.125,17.9851389 C73.125,19.7166667 71.7157639,21.125 69.9837847,21.125 L60.0148611,21.125 C58.2828819,21.125 56.875,19.7166667 56.875,17.9851389 L56.875,11.3325694 L56.875,8.01486111 C56.875,6.28288194 58.2828819,4.875 60.0148611,4.875 L69.9837847,4.875 C71.7157639,4.875 73.125,6.28288194 73.125,8.01486111 L73.125,11.3325694 L73.125,17.9851389 L73.125,17.9851389 L73.125,17.9851389 L73.125,17.9851389 Z M69.1111853,13.0313732 C69.1111853,15.4233732 67.1651514,17.3694071 64.7731514,17.3694071 C62.3811514,17.3694071 60.4355581,15.4233732 60.4355581,13.0313732 C60.4355581,12.4558478 60.5501344,11.906763 60.754609,11.4035088 L58.3859649,11.4035088 L58.3859649,17.8982206 C58.3859649,18.7368308 59.0676937,19.4185596 59.9063039,19.4185596 L69.6391175,19.4185596 C70.4777276,19.4185596 71.1603378,18.7368308 71.1603378,17.8982206 L71.1603378,11.4035088 L68.791253,11.4035088 C68.9952869,11.906763 69.1111853,12.4558478 69.1111853,13.0313732 L69.1111853,13.0313732 L69.1111853,13.0313732 L69.1111853,13.0313732 L69.1111853,13.0313732 Z M71.1096289,9.53068153 L71.1096289,7.19244425 L71.1096289,6.84210526 L70.7592899,6.84430865 L68.4210526,6.8513595 L68.4303069,9.53993577 L71.1096289,9.53068153 L71.1096289,9.53068153 L71.1096289,9.53068153 L71.1096289,9.53068153 L71.1096289,9.53068153 Z M64.827664,15.6184775 C66.3665114,15.6184775 67.6206809,14.3656301 67.6206809,12.8267826 C67.6206809,12.2195284 67.4223759,11.657664 67.0918674,11.1989182 C66.5837657,10.4955962 65.7592572,10.0350877 64.827664,10.0350877 C63.8960708,10.0350877 63.072003,10.4955962 62.5639013,11.1989182 C62.2333928,11.657664 62.0350877,12.2195284 62.0350877,12.8267826 C62.0350877,14.3656301 63.2874945,15.6184775 64.827664,15.6184775 L64.827664,15.6184775 L64.827664,15.6184775 L64.827664,15.6184775 L64.827664,15.6184775 Z" id="Combined-Shape"></path>
                <path d="M90.9997258,25.9983682 C83.8203847,25.9983682 78,20.1779836 78,12.9991841 C78,5.81930143 83.8203847,0 90.9997258,0 C98.1779836,0 103.998368,5.81930143 103.998368,12.9991841 C103.998368,20.1779836 98.1779836,25.9983682 90.9997258,25.9983682 L90.9997258,25.9983682 L90.9997258,25.9983682 Z M87.5191942,21.4806101 C87.6139799,21.3609093 88.8429445,19.8925431 89.2605432,18.4263435 C89.3786192,18.0109112 89.9381257,15.8611712 89.9381257,15.8611712 C90.273938,16.4797157 91.2532098,17.0235149 92.2953111,17.0235149 C95.3956165,17.0235149 97.4987762,14.2893531 97.4987762,10.6279163 C97.4987762,7.85909007 95.07497,5.28091855 91.3924094,5.28091855 C86.8107387,5.28091855 84.4995921,8.46030233 84.4995921,11.1110526 C84.4995921,12.7159102 85.127886,14.1441956 86.4738431,14.6771621 C86.6959125,14.7638234 86.8936085,14.6804119 86.9569795,14.4437185 C87.001935,14.2796038 87.1070117,13.8668797 87.1552171,13.6935572 C87.2185881,13.4595719 87.1942146,13.378327 87.0160174,13.1741315 C86.6271252,12.7305343 86.3790574,12.1564037 86.3790574,11.3439547 C86.3790574,8.98460276 88.2032763,6.8733186 91.1275511,6.8733186 C93.7176385,6.8733186 95.1405075,8.4050558 95.1405075,10.4502608 C95.1405075,13.1410919 93.9099181,15.4126993 92.0840744,15.4126993 C91.0739294,15.4126993 90.3188935,14.605125 90.5604617,13.6150205 C90.8513184,12.4326363 91.4129915,11.1565498 91.4129915,10.3029367 C91.4129915,9.53923461 90.9888931,8.90227459 90.1119898,8.90227459 C89.0801796,8.90227459 88.2514816,9.93462647 88.2514816,11.3174147 C88.2514816,12.198651 88.5596706,12.7955302 88.5596706,12.7955302 C88.5596706,12.7955302 87.5034869,17.122092 87.3187901,17.8803778 C86.9504799,19.389908 87.2630019,21.2401252 87.289542,21.4264469 C87.3047077,21.5374816 87.4520318,21.5640216 87.5191942,21.4806101 L87.5191942,21.4806101 L87.5191942,21.4806101 Z" id="Combined-Shape"></path>
                <path d="M130,13 C130,20.17925 124.17925,26 117.000542,26 C109.82075,26 104,20.17925 104,13 C104,5.81966667 109.82075,0 117.000542,0 C124.17925,0 130,5.81966667 130,13 L130,13 L130,13 Z M115.323,15.1980833 L115.321917,10.4368333 L119.712667,12.826125 L115.323,15.1980833 L115.323,15.1980833 L115.323,15.1980833 Z M124.316833,7.92945833 C123.698792,7.255625 123.006,7.25129167 122.689667,7.21283333 C120.414125,7.04166667 117.004333,7.04166667 117.004333,7.04166667 C116.99675,7.04166667 113.584792,7.04166667 111.311417,7.21283333 C110.994,7.25129167 110.302292,7.255625 109.683167,7.92945833 C109.19675,8.4435 109.038042,9.611875 109.038042,9.611875 C109.038042,9.611875 108.875,10.9828333 108.875,12.3543333 L108.875,13.6391667 C108.875,15.01175 109.038042,16.3827083 109.038042,16.3827083 C109.038042,16.3827083 109.19675,17.5494583 109.683167,18.0635 C110.302292,18.7389583 111.114792,18.71675 111.475542,18.7871667 C112.775542,18.9177083 117,18.9583333 117,18.9583333 C117,18.9583333 120.414125,18.9518333 122.689667,18.78175 C123.006,18.7422083 123.698792,18.7389583 124.316833,18.0635 C124.80325,17.5494583 124.961958,16.3827083 124.961958,16.3827083 C124.961958,16.3827083 125.125,15.01175 125.125,13.6391667 L125.125,12.3543333 C125.125,10.9828333 124.961958,9.611875 124.961958,9.611875 C124.961958,9.611875 124.80325,8.4435 124.316833,7.92945833 L124.316833,7.92945833 L124.316833,7.92945833 Z" id="Combined-Shape"></path>
            </g>
        </g>
    </g>
</svg>
